Coordinates
version=1
nRows=15
nColumns=34
inDegrees=yes

Units are S.I. units (second, meters, Newtons, ...)
If the header above contains a line with 'inDegrees', this indicates whether rotational values are in degrees (yes) or radians (no).

endheader
time	pelvis_tilt	pelvis_list	pelvis_rotation	pelvis_tx	pelvis_ty	pelvis_tz	hip_flexion_r	hip_adduction_r	hip_rotation_r	knee_angle_r	ankle_angle_r	subtalar_angle_r	mtp_angle_r	hip_flexion_l	hip_adduction_l	hip_rotation_l	knee_angle_l	ankle_angle_l	subtalar_angle_l	mtp_angle_l	lumbar_extension	lumbar_bending	lumbar_rotation	arm_flex_r	arm_add_r	arm_rot_r	elbow_flex_r	pro_sup_r	arm_flex_l	arm_add_l	arm_rot_l	elbow_flex_l	pro_sup_l
      5.41666670	     -7.31107419	     -2.91423750	      2.37564704	     -0.60696768	      0.72889838	     -0.18044624	     52.55796055	    -10.43589363	    -11.24658230	     86.84321096	     42.52552845	     -4.22727431	      0.00000000	     59.72964863	    -13.07881347	     -3.92590432	     92.03840496	     38.22749823	      5.72358178	      0.00000000	    -47.46818846	      5.24124997	      0.86408903	     25.43674858	    -13.99255109	      2.05121506	     27.40972486	     96.33836757	     15.86562700	    -13.90393430	      0.58682503	     37.74976675	    101.55246680
      5.43333330	     -7.25566835	     -2.77469879	      2.19499497	     -0.62342829	      0.73658026	     -0.17530183	     51.87807863	    -10.13155611	    -11.28097477	     85.44553636	     41.90275748	     -4.48140111	      0.00000000	     58.56269724	    -12.90537484	     -4.45359792	     90.13240193	     37.46173175	      5.09280311	      0.00000000	    -47.08735980	      4.83032251	      0.81686407	     25.36469308	    -13.77649559	      1.88883134	     27.42004646	     96.26215020	     15.78449422	    -13.83951859	      0.26012047	     37.60441767	    101.40429302
      5.45000000	     -6.80579948	     -2.46737364	      2.89139631	     -0.60509639	      0.74301464	     -0.16855503	     50.03218476	    -10.22951940	    -11.47990916	     84.12381400	     41.11545042	     -4.44546136	      0.00000000	     55.80403408	    -13.28014802	     -5.34438984	     87.62887919	     35.69684702	      5.04179312	      0.00000000	    -46.35324256	      4.61159675	      0.21608227	     24.77408854	    -13.09844332	      1.65600200	     27.44821891	     96.20034735	     15.46732248	    -14.03082300	     -0.08029595	     36.97985700	    101.25981197
      5.46666670	     -6.66553412	     -2.64896917	      3.29528745	     -0.60626974	      0.75500903	     -0.16854822	     47.73675147	     -9.65563036	    -12.39407178	     81.32906528	     40.29263228	     -4.93586160	      0.00000000	     53.98880050	    -13.79587839	     -5.92209902	     85.08144985	     34.96016419	      6.00118210	      0.00000000	    -45.48527103	      4.80931330	     -0.02975436	     23.98982850	    -12.65418244	      1.29938673	     27.86247274	     96.13588838	     15.21420445	    -14.12850812	     -0.35214063	     37.06532371	    101.12525576
      5.48333330	     -6.32301004	     -2.83020314	      3.33767879	     -0.60716490	      0.76161369	     -0.16828642	     46.72453937	     -9.11971947	    -12.75593692	     80.23939226	     39.69039960	     -5.15877536	      0.00000000	     52.58385385	    -14.31227396	     -6.38049107	     83.36219314	     34.37459351	      6.53103714	      0.00000000	    -44.69603730	      4.77588568	     -0.18799443	     23.49792475	    -12.21141044	      0.98310761	     28.16042801	     96.12426566	     14.70808862	    -14.20761236	     -0.62739002	     37.36424185	    100.99448179
      5.50000000	     -6.02347295	     -2.93555937	      3.65875541	     -0.60734772	      0.77787356	     -0.16872238	     44.97677024	     -8.43105193	    -12.97822202	     77.78526612	     38.54530912	     -6.18553399	      0.00000000	     50.70857325	    -14.51765705	     -7.01925451	     80.90188458	     33.51930586	      7.13602933	      0.00000000	    -44.00469832	      4.93226218	     -0.75685322	     22.51737458	    -11.60673183	      0.54191438	     28.84365077	     96.11444798	     14.23204751	    -14.31213620	     -0.81583862	     37.55168668	    100.89762554
      5.51666670	     -6.09037020	     -2.67308494	      3.87521406	     -0.60721290	      0.78376015	     -0.16833821	     44.05396160	     -8.19791502	    -12.80256024	     75.70097154	     37.40365128	     -7.03248999	      0.00000000	     49.49959803	    -14.23682045	     -7.87066075	     78.24068943	     32.37751113	      7.32034167	      0.00000000	    -43.09165434	      4.58526106	     -1.10445575	     21.96349934	    -11.23924676	      0.22413949	     29.08266329	     96.15698381	     13.89625383	    -14.46428031	     -0.88029800	     37.97258295	    100.83585052
      5.53333330	     -6.07222605	     -2.65873055	      3.99573839	     -0.60522717	      0.79917496	     -0.16861238	     42.34771214	     -7.62158711	    -12.89919760	     72.70619310	     36.27660240	     -7.42886628	      0.00000000	     48.16713537	    -13.71555214	     -7.95044336	     75.93544455	     31.04406074	      6.60409342	      0.00000000	    -42.23798555	      4.57588888	     -1.49877749	     21.30565978	    -10.92542909	     -0.02187596	     29.30732077	     96.21061693	     13.32611774	    -14.47397901	     -0.88200617	     38.30061035	    100.80362526
      5.55000000	     -5.94201726	     -2.51593806	      3.93412005	     -0.60415070	      0.80993459	     -0.16911378	     40.66327268	     -7.16194677	    -12.68744387	     69.96911812	     35.06496045	     -7.76658936	      0.00000000	     46.63420578	    -13.18985187	     -8.18930334	     73.29546344	     28.99392281	      4.96477031	      0.00000000	    -41.43354820	      4.44089184	     -1.92827137	     20.13685300	    -10.53168826	     -0.24190065	     29.50197578	     96.27850030	     12.26888467	    -14.48327085	     -0.84502033	     38.23148299	    100.77380978
      5.56666670	     -6.60525367	     -2.40533724	      3.47150632	     -0.62148659	      0.81508931	     -0.17539540	     40.70513495	     -7.19245042	    -12.66648210	     67.51722788	     33.06052157	     -7.97507003	      0.00000000	     46.78386356	    -12.30186653	     -8.54584371	     71.08646795	     26.67402754	      2.36560212	      0.00000000	    -40.13043159	      4.42465671	     -2.25537333	     19.80504636	    -10.59857980	     -0.19179742	     29.81203371	     96.38989606	     11.78236082	    -14.36116221	     -0.65633227	     38.78997617	    100.78604416
      5.58333330	     -6.87009258	     -1.97087701	      3.89090353	     -0.59865543	      0.82502093	     -0.16882791	     39.16599368	     -7.44997531	    -12.86992592	     64.40780184	     30.81688341	     -8.70773654	      0.00000000	     45.37237175	    -11.59582878	     -9.34078853	     67.93312438	     23.07913243	      0.31340551	      0.00000000	    -38.40248102	      4.09035920	     -2.84299241	     18.62221473	    -10.20538780	     -0.20257073	     29.32474338	     96.47986622	     11.17390893	    -14.36956977	     -0.34559948	     38.81466656	    100.82424442
      5.60000000	     -7.58597999	     -1.92111734	      4.15006938	     -0.59688737	      0.83034754	     -0.16919063	     38.17072889	     -7.37240530	    -13.31423631	     61.60042990	     28.96717171	     -9.48066814	      0.00000000	     44.36309341	    -11.25865946	     -9.71386007	     64.82183590	     21.20240702	     -0.47539611	      0.00000000	    -36.25390706	      4.12082384	     -3.14672933	     17.49922604	    -10.06181702	     -0.17734792	     28.72047218	     96.54398347	     10.68103020	    -14.20134294	      0.10172647	     39.12505237	    100.90160120
      5.61666670	     -7.48907114	     -1.28490819	      4.31153674	     -0.57944871	      0.84036215	     -0.17305544	     36.35396868	     -7.88458705	    -13.33507760	     59.52558867	     27.15175070	     -9.77319182	      0.00000000	     41.58450635	    -10.47017200	    -11.08671813	     61.07009465	     19.23314866	     -1.30948769	      0.00000000	    -33.95471429	      3.45319109	     -3.80692712	     16.32114850	     -9.69071511	     -0.10501845	     28.05032170	     96.60700116	      9.83935237	    -13.98993329	      0.45936945	     38.80588269	    100.96082864
      5.63333330	     -7.80220931	     -0.66391274	      4.32868344	     -0.57887910	      0.85178292	     -0.17213848	     35.24970792	     -8.25043301	    -13.49517554	     57.25308295	     26.08092208	     -9.65022991	      0.00000000	     39.19005355	     -9.68074949	    -12.52278594	     57.14314358	     17.50787085	     -2.18481980	      0.00000000	    -31.52258977	      2.60394671	     -4.04785578	     14.96184046	     -9.40520773	     -0.00798164	     27.46713109	     96.64895482	      8.65531620	    -13.94416865	      0.72124561	     39.14854831	    101.01021230
      5.65000000	     -8.08877544	     -0.42529602	      4.42096887	     -0.59637666	      0.86564253	     -0.16824299	     34.30406737	     -7.92327567	    -13.64330241	     53.85088361	     25.07284624	     -9.65458661	      0.00000000	     37.28681418	     -8.83789514	    -12.86729826	     52.60009896	     15.88019594	     -2.50289453	      0.00000000	    -29.56493569	      2.11286723	     -4.35932265	     13.81074785	     -8.93343333	      0.11338878	     27.11847555	     96.67977037	      7.57331900	    -14.04506305	      1.02240554	     39.61264893	    101.09731213
